<mxfile host="app.diagrams.net" agent="Mozilla/5.0 (Windows NT 10.0; Win64; x64) AppleWebKit/537.36 (KHTML, like Gecko) Chrome/134.0.0.0 Safari/537.36" version="26.1.1">
  <diagram name="Flowmap Diagram" id="mwyaXEYquuUbOgNk0wsL">
    <mxGraphModel dx="1443" dy="2213" grid="1" gridSize="10" guides="1" tooltips="1" connect="1" arrows="1" fold="1" page="1" pageScale="1" pageWidth="850" pageHeight="1100" math="0" shadow="0">
      <root>
        <mxCell id="0" />
        <mxCell id="1" parent="0" />
        <mxCell id="pMjqMdw5SBq0HLfdVr2h-1" value="" style="rounded=0;whiteSpace=wrap;html=1;container=0;" parent="1" vertex="1">
          <mxGeometry x="1560" y="-210" width="1340" height="1080" as="geometry" />
        </mxCell>
        <mxCell id="pMjqMdw5SBq0HLfdVr2h-2" style="edgeStyle=orthogonalEdgeStyle;rounded=0;orthogonalLoop=1;jettySize=auto;html=1;entryX=0.5;entryY=0;entryDx=0;entryDy=0;" parent="1" source="pMjqMdw5SBq0HLfdVr2h-3" target="pMjqMdw5SBq0HLfdVr2h-13" edge="1">
          <mxGeometry relative="1" as="geometry" />
        </mxCell>
        <mxCell id="pMjqMdw5SBq0HLfdVr2h-3" value="&lt;font style=&quot;font-size: 25px;&quot;&gt;Mulai&lt;/font&gt;" style="rounded=1;whiteSpace=wrap;html=1;arcSize=50;container=0;" parent="1" vertex="1">
          <mxGeometry x="1760" y="-70" width="120" height="60" as="geometry" />
        </mxCell>
        <mxCell id="pMjqMdw5SBq0HLfdVr2h-4" value="&lt;font style=&quot;font-size: 19px;&quot;&gt;&lt;b&gt;Full-Text Search Tempat Wisata&lt;/b&gt;&lt;/font&gt;" style="text;html=1;align=center;verticalAlign=middle;whiteSpace=wrap;rounded=0;container=0;" parent="1" vertex="1">
          <mxGeometry x="1650" y="-200" width="320" height="30" as="geometry" />
        </mxCell>
        <mxCell id="pMjqMdw5SBq0HLfdVr2h-5" value="" style="endArrow=none;html=1;rounded=0;entryX=0.002;entryY=0.042;entryDx=0;entryDy=0;entryPerimeter=0;exitX=0.998;exitY=0.04;exitDx=0;exitDy=0;exitPerimeter=0;" parent="1" source="pMjqMdw5SBq0HLfdVr2h-1" target="pMjqMdw5SBq0HLfdVr2h-1" edge="1">
          <mxGeometry width="50" height="50" relative="1" as="geometry">
            <mxPoint x="2850" y="-150" as="sourcePoint" />
            <mxPoint x="1640" y="-150" as="targetPoint" />
          </mxGeometry>
        </mxCell>
        <mxCell id="pMjqMdw5SBq0HLfdVr2h-6" value="" style="endArrow=none;html=1;rounded=0;entryX=0.003;entryY=0.077;entryDx=0;entryDy=0;entryPerimeter=0;exitX=0.998;exitY=0.074;exitDx=0;exitDy=0;exitPerimeter=0;" parent="1" source="pMjqMdw5SBq0HLfdVr2h-1" target="pMjqMdw5SBq0HLfdVr2h-1" edge="1">
          <mxGeometry width="50" height="50" relative="1" as="geometry">
            <mxPoint x="2850" y="-100" as="sourcePoint" />
            <mxPoint x="1640" y="-100" as="targetPoint" />
          </mxGeometry>
        </mxCell>
        <mxCell id="pMjqMdw5SBq0HLfdVr2h-7" value="&lt;span style=&quot;font-size: 15px;&quot;&gt;Wisatawan&lt;/span&gt;" style="text;html=1;align=center;verticalAlign=middle;whiteSpace=wrap;rounded=0;fontStyle=1;container=0;" parent="1" vertex="1">
          <mxGeometry x="2685" y="-160" width="60" height="30" as="geometry" />
        </mxCell>
        <mxCell id="pMjqMdw5SBq0HLfdVr2h-8" value="&lt;span style=&quot;font-size: 15px;&quot;&gt;Admin&lt;/span&gt;" style="text;html=1;align=center;verticalAlign=middle;whiteSpace=wrap;rounded=0;fontStyle=1;container=0;" parent="1" vertex="1">
          <mxGeometry x="2240" y="-160" width="60" height="30" as="geometry" />
        </mxCell>
        <mxCell id="pMjqMdw5SBq0HLfdVr2h-9" value="&lt;font style=&quot;font-size: 15px;&quot;&gt;Super Admin&lt;/font&gt;" style="text;html=1;align=center;verticalAlign=middle;whiteSpace=wrap;rounded=0;fontStyle=1;container=0;" parent="1" vertex="1">
          <mxGeometry x="1755" y="-160" width="110" height="30" as="geometry" />
        </mxCell>
        <mxCell id="pMjqMdw5SBq0HLfdVr2h-10" value="" style="endArrow=none;html=1;rounded=0;entryX=0.36;entryY=0.998;entryDx=0;entryDy=0;exitX=0.25;exitY=0;exitDx=0;exitDy=0;entryPerimeter=0;" parent="1" target="pMjqMdw5SBq0HLfdVr2h-1" edge="1">
          <mxGeometry width="50" height="50" relative="1" as="geometry">
            <mxPoint x="2040" y="-210" as="sourcePoint" />
            <mxPoint x="2040" y="410" as="targetPoint" />
          </mxGeometry>
        </mxCell>
        <mxCell id="pMjqMdw5SBq0HLfdVr2h-11" value="" style="endArrow=none;html=1;rounded=0;entryX=0.75;entryY=0;entryDx=0;entryDy=0;exitX=0.688;exitY=0.998;exitDx=0;exitDy=0;exitPerimeter=0;" parent="1" source="pMjqMdw5SBq0HLfdVr2h-1" edge="1">
          <mxGeometry width="50" height="50" relative="1" as="geometry">
            <mxPoint x="2480" y="410" as="sourcePoint" />
            <mxPoint x="2480" y="-210" as="targetPoint" />
          </mxGeometry>
        </mxCell>
        <mxCell id="pMjqMdw5SBq0HLfdVr2h-12" style="edgeStyle=orthogonalEdgeStyle;rounded=0;orthogonalLoop=1;jettySize=auto;html=1;entryX=0.5;entryY=0;entryDx=0;entryDy=0;" parent="1" source="pMjqMdw5SBq0HLfdVr2h-13" target="pMjqMdw5SBq0HLfdVr2h-15" edge="1">
          <mxGeometry relative="1" as="geometry" />
        </mxCell>
        <mxCell id="pMjqMdw5SBq0HLfdVr2h-13" value="&lt;font style=&quot;font-size: 25px;&quot;&gt;Mengelola Admin&lt;/font&gt;" style="shape=parallelogram;perimeter=parallelogramPerimeter;whiteSpace=wrap;html=1;fixedSize=1;container=0;" parent="1" vertex="1">
          <mxGeometry x="1675" y="60" width="290" height="60" as="geometry" />
        </mxCell>
        <mxCell id="pMjqMdw5SBq0HLfdVr2h-14" style="edgeStyle=orthogonalEdgeStyle;rounded=0;orthogonalLoop=1;jettySize=auto;html=1;entryX=0;entryY=0.5;entryDx=0;entryDy=0;" parent="1" source="pMjqMdw5SBq0HLfdVr2h-15" target="pMjqMdw5SBq0HLfdVr2h-17" edge="1">
          <mxGeometry relative="1" as="geometry" />
        </mxCell>
        <mxCell id="pMjqMdw5SBq0HLfdVr2h-15" value="&lt;font style=&quot;font-size: 25px;&quot;&gt;Menambah, mengedit, menghapus, dan melihat daftar admin&lt;/font&gt;" style="rounded=0;whiteSpace=wrap;html=1;" parent="1" vertex="1">
          <mxGeometry x="1675" y="210" width="290" height="90" as="geometry" />
        </mxCell>
        <mxCell id="pMjqMdw5SBq0HLfdVr2h-16" style="edgeStyle=orthogonalEdgeStyle;rounded=0;orthogonalLoop=1;jettySize=auto;html=1;entryX=0.5;entryY=0;entryDx=0;entryDy=0;" parent="1" source="pMjqMdw5SBq0HLfdVr2h-17" target="pMjqMdw5SBq0HLfdVr2h-19" edge="1">
          <mxGeometry relative="1" as="geometry" />
        </mxCell>
        <mxCell id="pMjqMdw5SBq0HLfdVr2h-17" value="&lt;font style=&quot;font-size: 25px;&quot;&gt;Mengelola Tempat Wisata&lt;/font&gt;" style="shape=parallelogram;perimeter=parallelogramPerimeter;whiteSpace=wrap;html=1;fixedSize=1;container=0;" parent="1" vertex="1">
          <mxGeometry x="2092.5" y="225" width="355" height="60" as="geometry" />
        </mxCell>
        <mxCell id="pMjqMdw5SBq0HLfdVr2h-18" style="edgeStyle=orthogonalEdgeStyle;rounded=0;orthogonalLoop=1;jettySize=auto;html=1;entryX=0;entryY=0.5;entryDx=0;entryDy=0;" parent="1" source="pMjqMdw5SBq0HLfdVr2h-19" target="pMjqMdw5SBq0HLfdVr2h-21" edge="1">
          <mxGeometry relative="1" as="geometry" />
        </mxCell>
        <mxCell id="pMjqMdw5SBq0HLfdVr2h-19" value="&lt;font style=&quot;font-size: 25px;&quot;&gt;Menambah, mengedit, dan menghapus tempat wisata&lt;/font&gt;" style="rounded=0;whiteSpace=wrap;html=1;" parent="1" vertex="1">
          <mxGeometry x="2125" y="400" width="290" height="90" as="geometry" />
        </mxCell>
        <mxCell id="pMjqMdw5SBq0HLfdVr2h-20" style="edgeStyle=orthogonalEdgeStyle;rounded=0;orthogonalLoop=1;jettySize=auto;html=1;entryX=0.5;entryY=0;entryDx=0;entryDy=0;" parent="1" source="pMjqMdw5SBq0HLfdVr2h-21" target="pMjqMdw5SBq0HLfdVr2h-24" edge="1">
          <mxGeometry relative="1" as="geometry" />
        </mxCell>
        <mxCell id="pMjqMdw5SBq0HLfdVr2h-21" value="&lt;font style=&quot;font-size: 25px;&quot;&gt;Wisatawan Mencari Tempat Wisata&lt;/font&gt;" style="rounded=0;whiteSpace=wrap;html=1;" parent="1" vertex="1">
          <mxGeometry x="2525" y="400" width="290" height="90" as="geometry" />
        </mxCell>
        <mxCell id="pMjqMdw5SBq0HLfdVr2h-36" style="edgeStyle=orthogonalEdgeStyle;rounded=0;orthogonalLoop=1;jettySize=auto;html=1;entryX=0.5;entryY=0;entryDx=0;entryDy=0;" parent="1" source="pMjqMdw5SBq0HLfdVr2h-24" target="pMjqMdw5SBq0HLfdVr2h-34" edge="1">
          <mxGeometry relative="1" as="geometry" />
        </mxCell>
        <mxCell id="pMjqMdw5SBq0HLfdVr2h-24" value="&lt;font style=&quot;font-size: 25px;&quot;&gt;Melihat Detail Wisata&lt;/font&gt;" style="rounded=0;whiteSpace=wrap;html=1;" parent="1" vertex="1">
          <mxGeometry x="2526" y="565" width="290" height="90" as="geometry" />
        </mxCell>
        <mxCell id="pMjqMdw5SBq0HLfdVr2h-34" value="&lt;font style=&quot;font-size: 25px;&quot;&gt;Selesai&lt;/font&gt;" style="rounded=1;whiteSpace=wrap;html=1;arcSize=50;container=0;" parent="1" vertex="1">
          <mxGeometry x="2595" y="740" width="150" height="60" as="geometry" />
        </mxCell>
        <mxCell id="XYXTgdF5FxZtIatxNG7c-1" value="" style="group" vertex="1" connectable="0" parent="1">
          <mxGeometry x="3120" y="-220" width="1535" height="1630" as="geometry" />
        </mxCell>
        <mxCell id="XYXTgdF5FxZtIatxNG7c-2" value="" style="rounded=0;whiteSpace=wrap;html=1;" vertex="1" parent="XYXTgdF5FxZtIatxNG7c-1">
          <mxGeometry width="1535" height="1630" as="geometry" />
        </mxCell>
        <mxCell id="XYXTgdF5FxZtIatxNG7c-3" value="" style="rounded=1;whiteSpace=wrap;html=1;fillColor=#dae8fc;strokeColor=#6c8ebf;movable=0;resizable=0;rotatable=0;deletable=0;editable=0;locked=1;connectable=0;" vertex="1" parent="XYXTgdF5FxZtIatxNG7c-1">
          <mxGeometry x="197.5" y="150" width="1140" height="1380" as="geometry" />
        </mxCell>
        <mxCell id="XYXTgdF5FxZtIatxNG7c-4" style="rounded=0;orthogonalLoop=1;jettySize=auto;html=1;entryX=0;entryY=0.5;entryDx=0;entryDy=0;endArrow=none;endFill=0;" edge="1" parent="XYXTgdF5FxZtIatxNG7c-1" source="XYXTgdF5FxZtIatxNG7c-7" target="XYXTgdF5FxZtIatxNG7c-17">
          <mxGeometry relative="1" as="geometry" />
        </mxCell>
        <mxCell id="XYXTgdF5FxZtIatxNG7c-64" style="rounded=0;orthogonalLoop=1;jettySize=auto;html=1;entryX=0;entryY=0.5;entryDx=0;entryDy=0;" edge="1" parent="XYXTgdF5FxZtIatxNG7c-1" source="XYXTgdF5FxZtIatxNG7c-7" target="XYXTgdF5FxZtIatxNG7c-57">
          <mxGeometry relative="1" as="geometry" />
        </mxCell>
        <mxCell id="XYXTgdF5FxZtIatxNG7c-7" value="&lt;font style=&quot;font-size: 29px;&quot;&gt;Super Admin&lt;/font&gt;" style="shape=umlActor;verticalLabelPosition=bottom;verticalAlign=top;html=1;outlineConnect=0;fontStyle=1" vertex="1" parent="XYXTgdF5FxZtIatxNG7c-1">
          <mxGeometry x="35" y="270" width="140" height="200" as="geometry" />
        </mxCell>
        <mxCell id="XYXTgdF5FxZtIatxNG7c-8" style="rounded=0;orthogonalLoop=1;jettySize=auto;html=1;entryX=0.5;entryY=1;entryDx=0;entryDy=0;endArrow=none;endFill=0;" edge="1" parent="XYXTgdF5FxZtIatxNG7c-1" source="XYXTgdF5FxZtIatxNG7c-10" target="XYXTgdF5FxZtIatxNG7c-17">
          <mxGeometry relative="1" as="geometry" />
        </mxCell>
        <mxCell id="XYXTgdF5FxZtIatxNG7c-9" style="rounded=0;orthogonalLoop=1;jettySize=auto;html=1;entryX=0;entryY=0.5;entryDx=0;entryDy=0;strokeColor=default;curved=0;endArrow=none;endFill=0;" edge="1" parent="XYXTgdF5FxZtIatxNG7c-1" source="XYXTgdF5FxZtIatxNG7c-10" target="XYXTgdF5FxZtIatxNG7c-20">
          <mxGeometry relative="1" as="geometry" />
        </mxCell>
        <mxCell id="XYXTgdF5FxZtIatxNG7c-10" value="&lt;font style=&quot;font-size: 29px;&quot;&gt;Admin&lt;/font&gt;" style="shape=umlActor;verticalLabelPosition=bottom;verticalAlign=top;html=1;outlineConnect=0;fontStyle=1" vertex="1" parent="XYXTgdF5FxZtIatxNG7c-1">
          <mxGeometry x="1370" y="430" width="140" height="200" as="geometry" />
        </mxCell>
        <mxCell id="XYXTgdF5FxZtIatxNG7c-13" style="rounded=0;orthogonalLoop=1;jettySize=auto;html=1;entryX=1;entryY=0.5;entryDx=0;entryDy=0;endArrow=none;endFill=0;" edge="1" parent="XYXTgdF5FxZtIatxNG7c-1" source="XYXTgdF5FxZtIatxNG7c-15" target="XYXTgdF5FxZtIatxNG7c-28">
          <mxGeometry relative="1" as="geometry">
            <mxPoint x="1375" y="781.1764705882354" as="sourcePoint" />
          </mxGeometry>
        </mxCell>
        <mxCell id="XYXTgdF5FxZtIatxNG7c-14" style="rounded=0;orthogonalLoop=1;jettySize=auto;html=1;entryX=1;entryY=0.5;entryDx=0;entryDy=0;endArrow=none;endFill=0;" edge="1" parent="XYXTgdF5FxZtIatxNG7c-1" source="XYXTgdF5FxZtIatxNG7c-15" target="XYXTgdF5FxZtIatxNG7c-47">
          <mxGeometry relative="1" as="geometry" />
        </mxCell>
        <mxCell id="XYXTgdF5FxZtIatxNG7c-15" value="&lt;font style=&quot;font-size: 29px;&quot;&gt;Wisatawan&lt;/font&gt;" style="shape=umlActor;verticalLabelPosition=bottom;verticalAlign=top;html=1;outlineConnect=0;fontStyle=1" vertex="1" parent="XYXTgdF5FxZtIatxNG7c-1">
          <mxGeometry x="1375" y="970" width="140" height="200" as="geometry" />
        </mxCell>
        <mxCell id="XYXTgdF5FxZtIatxNG7c-16" value="&lt;font style=&quot;font-size: 42px;&quot;&gt;Fulltext Search Tempat Wisata&lt;/font&gt;" style="text;html=1;align=center;verticalAlign=middle;whiteSpace=wrap;rounded=0;" vertex="1" parent="XYXTgdF5FxZtIatxNG7c-1">
          <mxGeometry x="543.87" y="60" width="406.25" height="30" as="geometry" />
        </mxCell>
        <mxCell id="XYXTgdF5FxZtIatxNG7c-17" value="&lt;font style=&quot;font-size: 40px;&quot;&gt;Login&lt;/font&gt;" style="ellipse;whiteSpace=wrap;html=1;" vertex="1" parent="XYXTgdF5FxZtIatxNG7c-1">
          <mxGeometry x="642.3200000000002" y="180" width="250.36" height="100" as="geometry" />
        </mxCell>
        <mxCell id="XYXTgdF5FxZtIatxNG7c-20" value="&lt;font style=&quot;font-size: 31px;&quot;&gt;Mengelola Tempat Wisata&lt;/font&gt;" style="ellipse;whiteSpace=wrap;html=1;" vertex="1" parent="XYXTgdF5FxZtIatxNG7c-1">
          <mxGeometry x="829" y="420" width="290" height="100" as="geometry" />
        </mxCell>
        <mxCell id="XYXTgdF5FxZtIatxNG7c-25" value="&lt;font style=&quot;font-size: 21px;&quot;&gt;&lt;b&gt;Extend&lt;/b&gt;&lt;/font&gt;" style="text;html=1;align=center;verticalAlign=middle;whiteSpace=wrap;rounded=0;" vertex="1" parent="XYXTgdF5FxZtIatxNG7c-1">
          <mxGeometry x="769" y="550" width="60" height="30" as="geometry" />
        </mxCell>
        <mxCell id="XYXTgdF5FxZtIatxNG7c-26" value="&lt;font style=&quot;font-size: 21px;&quot;&gt;&lt;b&gt;Extend&lt;/b&gt;&lt;/font&gt;" style="text;html=1;align=center;verticalAlign=middle;whiteSpace=wrap;rounded=0;" vertex="1" parent="XYXTgdF5FxZtIatxNG7c-1">
          <mxGeometry x="899" y="555" width="60" height="30" as="geometry" />
        </mxCell>
        <mxCell id="XYXTgdF5FxZtIatxNG7c-28" value="&lt;font style=&quot;font-size: 31px;&quot;&gt;Mengelola Data Dosen&lt;/font&gt;" style="ellipse;whiteSpace=wrap;html=1;" vertex="1" parent="XYXTgdF5FxZtIatxNG7c-1">
          <mxGeometry x="917" y="770" width="290" height="100" as="geometry" />
        </mxCell>
        <mxCell id="XYXTgdF5FxZtIatxNG7c-35" style="rounded=0;orthogonalLoop=1;jettySize=auto;html=1;entryX=1;entryY=1;entryDx=0;entryDy=0;" edge="1" parent="XYXTgdF5FxZtIatxNG7c-1" source="XYXTgdF5FxZtIatxNG7c-36" target="XYXTgdF5FxZtIatxNG7c-28">
          <mxGeometry relative="1" as="geometry" />
        </mxCell>
        <mxCell id="XYXTgdF5FxZtIatxNG7c-36" value="&lt;span style=&quot;font-size: 28px;&quot;&gt;Menambah Data Dosen&lt;/span&gt;" style="ellipse;whiteSpace=wrap;html=1;aspect=fixed;" vertex="1" parent="XYXTgdF5FxZtIatxNG7c-1">
          <mxGeometry x="1167" y="920" width="150" height="150" as="geometry" />
        </mxCell>
        <mxCell id="XYXTgdF5FxZtIatxNG7c-37" style="rounded=0;orthogonalLoop=1;jettySize=auto;html=1;entryX=0.5;entryY=1;entryDx=0;entryDy=0;" edge="1" parent="XYXTgdF5FxZtIatxNG7c-1" source="XYXTgdF5FxZtIatxNG7c-38" target="XYXTgdF5FxZtIatxNG7c-28">
          <mxGeometry relative="1" as="geometry" />
        </mxCell>
        <mxCell id="XYXTgdF5FxZtIatxNG7c-38" value="&lt;font style=&quot;font-size: 28px;&quot;&gt;Menghapus Data Dosen&lt;/font&gt;" style="ellipse;whiteSpace=wrap;html=1;aspect=fixed;" vertex="1" parent="XYXTgdF5FxZtIatxNG7c-1">
          <mxGeometry x="987" y="920" width="150" height="150" as="geometry" />
        </mxCell>
        <mxCell id="XYXTgdF5FxZtIatxNG7c-39" style="rounded=0;orthogonalLoop=1;jettySize=auto;html=1;entryX=0;entryY=1;entryDx=0;entryDy=0;" edge="1" parent="XYXTgdF5FxZtIatxNG7c-1" source="XYXTgdF5FxZtIatxNG7c-40" target="XYXTgdF5FxZtIatxNG7c-28">
          <mxGeometry relative="1" as="geometry" />
        </mxCell>
        <mxCell id="XYXTgdF5FxZtIatxNG7c-40" value="&lt;font style=&quot;font-size: 28px;&quot;&gt;Mengubah Data Dosen&lt;/font&gt;" style="ellipse;whiteSpace=wrap;html=1;aspect=fixed;" vertex="1" parent="XYXTgdF5FxZtIatxNG7c-1">
          <mxGeometry x="817" y="920" width="150" height="150" as="geometry" />
        </mxCell>
        <mxCell id="XYXTgdF5FxZtIatxNG7c-41" value="&lt;font style=&quot;font-size: 21px;&quot;&gt;&lt;b&gt;Extend&lt;/b&gt;&lt;/font&gt;" style="text;html=1;align=center;verticalAlign=middle;whiteSpace=wrap;rounded=0;" vertex="1" parent="XYXTgdF5FxZtIatxNG7c-1">
          <mxGeometry x="257" y="430" width="60" height="30" as="geometry" />
        </mxCell>
        <mxCell id="XYXTgdF5FxZtIatxNG7c-42" value="&lt;font style=&quot;font-size: 21px;&quot;&gt;&lt;b&gt;Extend&lt;/b&gt;&lt;/font&gt;" style="text;html=1;align=center;verticalAlign=middle;whiteSpace=wrap;rounded=0;" vertex="1" parent="XYXTgdF5FxZtIatxNG7c-1">
          <mxGeometry x="377" y="450" width="60" height="30" as="geometry" />
        </mxCell>
        <mxCell id="XYXTgdF5FxZtIatxNG7c-43" value="&lt;font style=&quot;font-size: 21px;&quot;&gt;&lt;b&gt;Extend&lt;/b&gt;&lt;/font&gt;" style="text;html=1;align=center;verticalAlign=middle;whiteSpace=wrap;rounded=0;" vertex="1" parent="XYXTgdF5FxZtIatxNG7c-1">
          <mxGeometry x="500" y="440" width="60" height="30" as="geometry" />
        </mxCell>
        <mxCell id="XYXTgdF5FxZtIatxNG7c-44" value="&lt;font style=&quot;font-size: 21px;&quot;&gt;&lt;b&gt;Extend&lt;/b&gt;&lt;/font&gt;" style="text;html=1;align=center;verticalAlign=middle;whiteSpace=wrap;rounded=0;" vertex="1" parent="XYXTgdF5FxZtIatxNG7c-1">
          <mxGeometry x="867" y="855" width="60" height="30" as="geometry" />
        </mxCell>
        <mxCell id="XYXTgdF5FxZtIatxNG7c-45" value="&lt;font style=&quot;font-size: 21px;&quot;&gt;&lt;b&gt;Extend&lt;/b&gt;&lt;/font&gt;" style="text;html=1;align=center;verticalAlign=middle;whiteSpace=wrap;rounded=0;" vertex="1" parent="XYXTgdF5FxZtIatxNG7c-1">
          <mxGeometry x="987" y="880" width="60" height="30" as="geometry" />
        </mxCell>
        <mxCell id="XYXTgdF5FxZtIatxNG7c-46" value="&lt;font style=&quot;font-size: 21px;&quot;&gt;&lt;b&gt;Extend&lt;/b&gt;&lt;/font&gt;" style="text;html=1;align=center;verticalAlign=middle;whiteSpace=wrap;rounded=0;" vertex="1" parent="XYXTgdF5FxZtIatxNG7c-1">
          <mxGeometry x="1207" y="870" width="60" height="30" as="geometry" />
        </mxCell>
        <mxCell id="XYXTgdF5FxZtIatxNG7c-47" value="&lt;font style=&quot;font-size: 31px;&quot;&gt;Mengelola Data Jurusan, Prodi, dan Kelas&lt;/font&gt;" style="ellipse;whiteSpace=wrap;html=1;" vertex="1" parent="XYXTgdF5FxZtIatxNG7c-1">
          <mxGeometry x="737" y="1140" width="410" height="100" as="geometry" />
        </mxCell>
        <mxCell id="XYXTgdF5FxZtIatxNG7c-48" style="rounded=0;orthogonalLoop=1;jettySize=auto;html=1;entryX=1;entryY=1;entryDx=0;entryDy=0;" edge="1" parent="XYXTgdF5FxZtIatxNG7c-1" source="XYXTgdF5FxZtIatxNG7c-49" target="XYXTgdF5FxZtIatxNG7c-47">
          <mxGeometry relative="1" as="geometry" />
        </mxCell>
        <mxCell id="XYXTgdF5FxZtIatxNG7c-49" value="&lt;span style=&quot;font-size: 28px;&quot;&gt;Menambah Data&amp;nbsp;&lt;/span&gt;&lt;span style=&quot;font-size: 31px;&quot;&gt;Jurusan, Prodi, dan Kelas&lt;/span&gt;" style="ellipse;whiteSpace=wrap;html=1;aspect=fixed;" vertex="1" parent="XYXTgdF5FxZtIatxNG7c-1">
          <mxGeometry x="1067" y="1290" width="200" height="200" as="geometry" />
        </mxCell>
        <mxCell id="XYXTgdF5FxZtIatxNG7c-50" style="rounded=0;orthogonalLoop=1;jettySize=auto;html=1;entryX=0.5;entryY=1;entryDx=0;entryDy=0;" edge="1" parent="XYXTgdF5FxZtIatxNG7c-1" source="XYXTgdF5FxZtIatxNG7c-51" target="XYXTgdF5FxZtIatxNG7c-47">
          <mxGeometry relative="1" as="geometry" />
        </mxCell>
        <mxCell id="XYXTgdF5FxZtIatxNG7c-51" value="&lt;font style=&quot;font-size: 28px;&quot;&gt;Menghapus Data&amp;nbsp;&lt;/font&gt;&lt;span style=&quot;font-size: 31px;&quot;&gt;Jurusan, Prodi, dan Kelas&lt;/span&gt;" style="ellipse;whiteSpace=wrap;html=1;aspect=fixed;" vertex="1" parent="XYXTgdF5FxZtIatxNG7c-1">
          <mxGeometry x="848" y="1320" width="190" height="190" as="geometry" />
        </mxCell>
        <mxCell id="XYXTgdF5FxZtIatxNG7c-52" style="rounded=0;orthogonalLoop=1;jettySize=auto;html=1;entryX=0;entryY=1;entryDx=0;entryDy=0;" edge="1" parent="XYXTgdF5FxZtIatxNG7c-1" source="XYXTgdF5FxZtIatxNG7c-53" target="XYXTgdF5FxZtIatxNG7c-47">
          <mxGeometry relative="1" as="geometry" />
        </mxCell>
        <mxCell id="XYXTgdF5FxZtIatxNG7c-53" value="&lt;font style=&quot;font-size: 28px;&quot;&gt;Mengubah Data&amp;nbsp;&lt;/font&gt;&lt;span style=&quot;font-size: 31px;&quot;&gt;Jurusan, Prodi, dan Kelas&lt;/span&gt;" style="ellipse;whiteSpace=wrap;html=1;aspect=fixed;" vertex="1" parent="XYXTgdF5FxZtIatxNG7c-1">
          <mxGeometry x="617" y="1305" width="190" height="190" as="geometry" />
        </mxCell>
        <mxCell id="XYXTgdF5FxZtIatxNG7c-54" value="&lt;font style=&quot;font-size: 21px;&quot;&gt;&lt;b&gt;Extend&lt;/b&gt;&lt;/font&gt;" style="text;html=1;align=center;verticalAlign=middle;whiteSpace=wrap;rounded=0;" vertex="1" parent="XYXTgdF5FxZtIatxNG7c-1">
          <mxGeometry x="702" y="1250" width="60" height="30" as="geometry" />
        </mxCell>
        <mxCell id="XYXTgdF5FxZtIatxNG7c-55" value="&lt;font style=&quot;font-size: 21px;&quot;&gt;&lt;b&gt;Extend&lt;/b&gt;&lt;/font&gt;" style="text;html=1;align=center;verticalAlign=middle;whiteSpace=wrap;rounded=0;" vertex="1" parent="XYXTgdF5FxZtIatxNG7c-1">
          <mxGeometry x="867" y="1270" width="60" height="30" as="geometry" />
        </mxCell>
        <mxCell id="XYXTgdF5FxZtIatxNG7c-56" value="&lt;font style=&quot;font-size: 21px;&quot;&gt;&lt;b&gt;Extend&lt;/b&gt;&lt;/font&gt;" style="text;html=1;align=center;verticalAlign=middle;whiteSpace=wrap;rounded=0;" vertex="1" parent="XYXTgdF5FxZtIatxNG7c-1">
          <mxGeometry x="1037" y="1270" width="60" height="30" as="geometry" />
        </mxCell>
        <mxCell id="XYXTgdF5FxZtIatxNG7c-57" value="&lt;font style=&quot;font-size: 31px;&quot;&gt;Mengelola Data Admin&lt;/font&gt;" style="ellipse;whiteSpace=wrap;html=1;" vertex="1" parent="XYXTgdF5FxZtIatxNG7c-1">
          <mxGeometry x="300" y="320" width="290" height="100" as="geometry" />
        </mxCell>
        <mxCell id="XYXTgdF5FxZtIatxNG7c-61" style="rounded=0;orthogonalLoop=1;jettySize=auto;html=1;entryX=0;entryY=1;entryDx=0;entryDy=0;" edge="1" parent="XYXTgdF5FxZtIatxNG7c-1" source="XYXTgdF5FxZtIatxNG7c-58" target="XYXTgdF5FxZtIatxNG7c-57">
          <mxGeometry relative="1" as="geometry" />
        </mxCell>
        <mxCell id="XYXTgdF5FxZtIatxNG7c-58" value="&lt;font style=&quot;font-size: 28px;&quot;&gt;Mengubah Data Admin&lt;/font&gt;" style="ellipse;whiteSpace=wrap;html=1;aspect=fixed;" vertex="1" parent="XYXTgdF5FxZtIatxNG7c-1">
          <mxGeometry x="210" y="485" width="150" height="150" as="geometry" />
        </mxCell>
        <mxCell id="XYXTgdF5FxZtIatxNG7c-59" value="&lt;font style=&quot;font-size: 28px;&quot;&gt;Menghapus Data Admin&lt;/font&gt;" style="ellipse;whiteSpace=wrap;html=1;aspect=fixed;fontStyle=0" vertex="1" parent="XYXTgdF5FxZtIatxNG7c-1">
          <mxGeometry x="380" y="485" width="150" height="150" as="geometry" />
        </mxCell>
        <mxCell id="XYXTgdF5FxZtIatxNG7c-63" style="rounded=0;orthogonalLoop=1;jettySize=auto;html=1;entryX=1;entryY=1;entryDx=0;entryDy=0;" edge="1" parent="XYXTgdF5FxZtIatxNG7c-1" source="XYXTgdF5FxZtIatxNG7c-60" target="XYXTgdF5FxZtIatxNG7c-57">
          <mxGeometry relative="1" as="geometry" />
        </mxCell>
        <mxCell id="XYXTgdF5FxZtIatxNG7c-60" value="&lt;font style=&quot;font-size: 28px;&quot;&gt;Menambah Data Admin&lt;/font&gt;" style="ellipse;whiteSpace=wrap;html=1;aspect=fixed;fontStyle=0" vertex="1" parent="XYXTgdF5FxZtIatxNG7c-1">
          <mxGeometry x="555" y="485" width="150" height="150" as="geometry" />
        </mxCell>
        <mxCell id="XYXTgdF5FxZtIatxNG7c-62" style="rounded=0;orthogonalLoop=1;jettySize=auto;html=1;entryX=0.451;entryY=0.972;entryDx=0;entryDy=0;entryPerimeter=0;" edge="1" parent="XYXTgdF5FxZtIatxNG7c-1" source="XYXTgdF5FxZtIatxNG7c-59" target="XYXTgdF5FxZtIatxNG7c-57">
          <mxGeometry relative="1" as="geometry" />
        </mxCell>
        <mxCell id="XYXTgdF5FxZtIatxNG7c-68" style="rounded=0;orthogonalLoop=1;jettySize=auto;html=1;entryX=0;entryY=1;entryDx=0;entryDy=0;" edge="1" parent="XYXTgdF5FxZtIatxNG7c-1" source="XYXTgdF5FxZtIatxNG7c-65" target="XYXTgdF5FxZtIatxNG7c-20">
          <mxGeometry relative="1" as="geometry" />
        </mxCell>
        <mxCell id="XYXTgdF5FxZtIatxNG7c-65" value="&lt;font style=&quot;font-size: 28px;&quot;&gt;Mengubah Tempat Wisata&lt;/font&gt;" style="ellipse;whiteSpace=wrap;html=1;aspect=fixed;" vertex="1" parent="XYXTgdF5FxZtIatxNG7c-1">
          <mxGeometry x="712" y="610" width="150" height="150" as="geometry" />
        </mxCell>
        <mxCell id="XYXTgdF5FxZtIatxNG7c-69" style="rounded=0;orthogonalLoop=1;jettySize=auto;html=1;entryX=0.5;entryY=1;entryDx=0;entryDy=0;" edge="1" parent="XYXTgdF5FxZtIatxNG7c-1" source="XYXTgdF5FxZtIatxNG7c-66" target="XYXTgdF5FxZtIatxNG7c-20">
          <mxGeometry relative="1" as="geometry" />
        </mxCell>
        <mxCell id="XYXTgdF5FxZtIatxNG7c-66" value="&lt;font style=&quot;font-size: 28px;&quot;&gt;Menghapus Tempat Wisata&lt;/font&gt;" style="ellipse;whiteSpace=wrap;html=1;aspect=fixed;fontStyle=0" vertex="1" parent="XYXTgdF5FxZtIatxNG7c-1">
          <mxGeometry x="882" y="610" width="150" height="150" as="geometry" />
        </mxCell>
        <mxCell id="XYXTgdF5FxZtIatxNG7c-70" style="rounded=0;orthogonalLoop=1;jettySize=auto;html=1;entryX=1;entryY=1;entryDx=0;entryDy=0;" edge="1" parent="XYXTgdF5FxZtIatxNG7c-1" source="XYXTgdF5FxZtIatxNG7c-67" target="XYXTgdF5FxZtIatxNG7c-20">
          <mxGeometry relative="1" as="geometry" />
        </mxCell>
        <mxCell id="XYXTgdF5FxZtIatxNG7c-67" value="&lt;font style=&quot;font-size: 28px;&quot;&gt;Menambah Tempat Wisata&lt;/font&gt;" style="ellipse;whiteSpace=wrap;html=1;aspect=fixed;fontStyle=0" vertex="1" parent="XYXTgdF5FxZtIatxNG7c-1">
          <mxGeometry x="1057" y="610" width="150" height="150" as="geometry" />
        </mxCell>
        <mxCell id="XYXTgdF5FxZtIatxNG7c-71" value="&lt;font style=&quot;font-size: 21px;&quot;&gt;&lt;b&gt;Extend&lt;/b&gt;&lt;/font&gt;" style="text;html=1;align=center;verticalAlign=middle;whiteSpace=wrap;rounded=0;" vertex="1" parent="XYXTgdF5FxZtIatxNG7c-1">
          <mxGeometry x="1032" y="555" width="60" height="30" as="geometry" />
        </mxCell>
      </root>
    </mxGraphModel>
  </diagram>
</mxfile>
